<svg width="1280" height="280" viewBox="0 0 1280 280" fill="none" xmlns="http://www.w3.org/2000/svg">
<g clip-path="url(#clip0_1_56)">
<path d="M0 16C0 7.16344 7.16344 0 16 0H1264C1272.84 0 1280 7.16344 1280 16V264C1280 272.837 1272.84 280 1264 280H16C7.16343 280 0 272.837 0 264V16Z" fill="#211C2E"/>
<g filter="url(#filter0_f_1_56)">
<ellipse cx="640" cy="140" rx="400" ry="150" fill="#7852ED" fill-opacity="0.08"/>
</g>
<g filter="url(#filter1_d_1_56)">
<path d="M295.722 144.824V141.869C298.922 141.869 301.129 141.235 302.341 139.966C303.572 138.697 304.188 136.481 304.188 133.318V122.295C304.188 119.871 304.424 117.769 304.898 115.989C305.371 114.189 306.129 112.712 307.17 111.557C308.212 110.383 309.576 109.511 311.261 108.943C312.966 108.375 315.04 108.091 317.483 108.091V112.409C315.362 112.409 313.667 112.759 312.398 113.46C311.148 114.142 310.248 115.212 309.699 116.67C309.169 118.129 308.903 120.004 308.903 122.295V134.824C308.903 136.434 308.714 137.864 308.335 139.114C307.956 140.345 307.284 141.386 306.318 142.239C305.352 143.091 304.008 143.735 302.284 144.17C300.58 144.606 298.392 144.824 295.722 144.824ZM317.483 180.818C315.04 180.818 312.966 180.534 311.261 179.966C309.576 179.398 308.212 178.527 307.17 177.352C306.129 176.197 305.371 174.72 304.898 172.92C304.424 171.14 304.188 169.038 304.188 166.614V155.591C304.188 152.428 303.572 150.212 302.341 148.943C301.129 147.674 298.922 147.04 295.722 147.04V144.085C298.392 144.085 300.58 144.303 302.284 144.739C304.008 145.174 305.352 145.818 306.318 146.67C307.284 147.523 307.956 148.574 308.335 149.824C308.714 151.055 308.903 152.475 308.903 154.085V166.614C308.903 168.905 309.169 170.771 309.699 172.21C310.248 173.669 311.148 174.748 312.398 175.449C313.667 176.15 315.362 176.5 317.483 176.5V180.818ZM295.722 147.04V141.869H302.227V147.04H295.722Z" fill="#61D1F5"/>
</g>
<g filter="url(#filter2_d_1_56)">
<path d="M367.616 196.125L339.491 91.6364H355.131L383.256 196.125H367.616Z" fill="#8C5CFF"/>
</g>
<g filter="url(#filter3_d_1_56)">
<path d="M424.006 144.085V147.04C420.805 147.04 418.589 147.674 417.358 148.943C416.146 150.212 415.54 152.428 415.54 155.591V166.614C415.54 169.038 415.303 171.14 414.83 172.92C414.356 174.72 413.598 176.197 412.557 177.352C411.515 178.527 410.142 179.398 408.438 179.966C406.752 180.534 404.688 180.818 402.244 180.818V176.5C404.366 176.5 406.051 176.15 407.301 175.449C408.57 174.748 409.47 173.669 410 172.21C410.549 170.771 410.824 168.905 410.824 166.614V154.085C410.824 152.475 411.013 151.055 411.392 149.824C411.771 148.574 412.443 147.523 413.409 146.67C414.375 145.818 415.71 145.174 417.415 144.739C419.138 144.303 421.335 144.085 424.006 144.085ZM402.244 108.091C404.688 108.091 406.752 108.375 408.438 108.943C410.142 109.511 411.515 110.383 412.557 111.557C413.598 112.712 414.356 114.189 414.83 115.989C415.303 117.769 415.54 119.871 415.54 122.295V133.318C415.54 136.481 416.146 138.697 417.358 139.966C418.589 141.235 420.805 141.869 424.006 141.869V144.824C421.335 144.824 419.138 144.606 417.415 144.17C415.71 143.735 414.375 143.091 413.409 142.239C412.443 141.386 411.771 140.345 411.392 139.114C411.013 137.864 410.824 136.434 410.824 134.824V122.295C410.824 120.004 410.549 118.129 410 116.67C409.47 115.212 408.57 114.142 407.301 113.46C406.051 112.759 404.366 112.409 402.244 112.409V108.091ZM424.006 141.869V147.04H417.5V141.869H424.006Z" fill="#61D1F5"/>
</g>
<path d="M462.655 141V110.455H474.706C477.023 110.455 478.996 110.897 480.627 111.782C482.258 112.657 483.501 113.875 484.356 115.436C485.221 116.987 485.653 118.777 485.653 120.805C485.653 122.834 485.216 124.624 484.341 126.175C483.466 127.726 482.198 128.934 480.538 129.799C478.887 130.664 476.888 131.097 474.542 131.097H466.861V125.921H473.498C474.741 125.921 475.765 125.707 476.57 125.28C477.386 124.842 477.992 124.241 478.39 123.475C478.798 122.7 479.001 121.81 479.001 120.805C479.001 119.791 478.798 118.906 478.39 118.151C477.992 117.385 477.386 116.793 476.57 116.376C475.755 115.948 474.721 115.734 473.468 115.734H469.113V141H462.655ZM489.848 141V110.455H496.306V123.058H509.416V110.455H515.86V141H509.416V128.382H496.306V141H489.848ZM521.184 141V110.455H533.235C535.552 110.455 537.526 110.897 539.156 111.782C540.787 112.657 542.03 113.875 542.885 115.436C543.75 116.987 544.183 118.777 544.183 120.805C544.183 122.834 543.745 124.624 542.87 126.175C541.995 127.726 540.727 128.934 539.067 129.799C537.416 130.664 535.418 131.097 533.071 131.097H525.39V125.921H532.027C533.27 125.921 534.294 125.707 535.1 125.28C535.915 124.842 536.521 124.241 536.919 123.475C537.327 122.7 537.531 121.81 537.531 120.805C537.531 119.791 537.327 118.906 536.919 118.151C536.521 117.385 535.915 116.793 535.1 116.376C534.284 115.948 533.25 115.734 531.997 115.734H527.642V141H521.184ZM583.647 110.455V141H578.069L564.78 121.775H564.556V141H558.098V110.455H563.766L576.95 129.665H577.219V110.455H583.647ZM595.396 141.433C593.935 141.433 592.632 141.179 591.489 140.672C590.345 140.155 589.44 139.394 588.774 138.39C588.118 137.376 587.79 136.113 587.79 134.602C587.79 133.329 588.023 132.26 588.491 131.395C588.958 130.53 589.594 129.834 590.4 129.307C591.205 128.78 592.12 128.382 593.144 128.114C594.178 127.845 595.262 127.656 596.396 127.547C597.728 127.408 598.802 127.278 599.617 127.159C600.433 127.03 601.024 126.841 601.392 126.592C601.76 126.344 601.944 125.976 601.944 125.489V125.399C601.944 124.455 601.646 123.724 601.049 123.207C600.462 122.69 599.627 122.431 598.543 122.431C597.4 122.431 596.49 122.685 595.814 123.192C595.138 123.689 594.69 124.315 594.472 125.071L588.595 124.594C588.893 123.202 589.48 121.999 590.355 120.984C591.23 119.96 592.359 119.175 593.741 118.628C595.133 118.071 596.744 117.793 598.573 117.793C599.846 117.793 601.064 117.942 602.227 118.24C603.401 118.538 604.44 119.001 605.344 119.627C606.259 120.254 606.98 121.059 607.507 122.043C608.034 123.018 608.298 124.186 608.298 125.548V141H602.272V137.823H602.093C601.725 138.539 601.233 139.17 600.616 139.717C600 140.254 599.259 140.677 598.394 140.985C597.529 141.283 596.53 141.433 595.396 141.433ZM597.216 137.048C598.151 137.048 598.976 136.864 599.692 136.496C600.408 136.118 600.969 135.611 601.377 134.974C601.785 134.338 601.989 133.617 601.989 132.812V130.381C601.79 130.51 601.516 130.629 601.168 130.739C600.83 130.838 600.447 130.933 600.02 131.022C599.592 131.102 599.165 131.176 598.737 131.246C598.31 131.305 597.922 131.36 597.574 131.41C596.828 131.519 596.177 131.693 595.62 131.932C595.063 132.17 594.631 132.494 594.322 132.901C594.014 133.299 593.86 133.796 593.86 134.393C593.86 135.258 594.173 135.919 594.8 136.376C595.436 136.824 596.241 137.048 597.216 137.048ZM613.227 141V118.091H619.282V122.133H619.551C620.028 120.79 620.824 119.732 621.937 118.956C623.051 118.18 624.383 117.793 625.934 117.793C627.505 117.793 628.843 118.185 629.946 118.971C631.05 119.746 631.786 120.8 632.154 122.133H632.392C632.86 120.82 633.705 119.771 634.928 118.986C636.161 118.19 637.618 117.793 639.298 117.793C641.436 117.793 643.171 118.474 644.503 119.836C645.846 121.188 646.517 123.107 646.517 125.593V141H640.178V126.846C640.178 125.573 639.84 124.619 639.164 123.982C638.488 123.346 637.642 123.028 636.628 123.028C635.475 123.028 634.575 123.396 633.929 124.131C633.282 124.857 632.959 125.817 632.959 127.01V141H626.799V126.712C626.799 125.588 626.476 124.693 625.83 124.027C625.194 123.361 624.353 123.028 623.309 123.028C622.603 123.028 621.967 123.207 621.4 123.565C620.843 123.913 620.401 124.405 620.073 125.041C619.745 125.668 619.581 126.403 619.581 127.249V141H613.227ZM661.976 141.447C659.619 141.447 657.591 140.97 655.891 140.016C654.2 139.051 652.898 137.689 651.983 135.929C651.068 134.159 650.611 132.066 650.611 129.65C650.611 127.293 651.068 125.225 651.983 123.445C652.898 121.665 654.185 120.278 655.846 119.284C657.516 118.29 659.475 117.793 661.722 117.793C663.234 117.793 664.641 118.036 665.943 118.523C667.256 119.001 668.399 119.722 669.374 120.686C670.358 121.651 671.124 122.864 671.67 124.325C672.217 125.777 672.491 127.477 672.491 129.426V131.171H653.146V127.234H666.51C666.51 126.319 666.311 125.509 665.913 124.803C665.516 124.097 664.964 123.545 664.258 123.147C663.562 122.739 662.751 122.536 661.827 122.536C660.862 122.536 660.007 122.759 659.261 123.207C658.526 123.644 657.949 124.236 657.531 124.982C657.114 125.717 656.9 126.538 656.89 127.442V131.186C656.89 132.32 657.099 133.299 657.516 134.124C657.944 134.95 658.545 135.586 659.321 136.033C660.097 136.481 661.016 136.705 662.08 136.705C662.786 136.705 663.433 136.605 664.019 136.406C664.606 136.207 665.108 135.909 665.526 135.511C665.943 135.114 666.261 134.626 666.48 134.05L672.357 134.438C672.058 135.849 671.447 137.082 670.522 138.136C669.607 139.18 668.424 139.996 666.972 140.582C665.531 141.159 663.865 141.447 661.976 141.447ZM695.698 124.624L689.881 124.982C689.782 124.484 689.568 124.037 689.24 123.639C688.912 123.232 688.479 122.908 687.942 122.67C687.415 122.421 686.784 122.297 686.048 122.297C685.064 122.297 684.234 122.506 683.558 122.923C682.881 123.331 682.543 123.878 682.543 124.564C682.543 125.111 682.762 125.573 683.2 125.951C683.637 126.329 684.388 126.632 685.452 126.861L689.598 127.696C691.825 128.153 693.486 128.889 694.58 129.903C695.673 130.918 696.22 132.25 696.22 133.901C696.22 135.402 695.778 136.719 694.893 137.853C694.018 138.987 692.815 139.871 691.283 140.508C689.762 141.134 688.007 141.447 686.018 141.447C682.986 141.447 680.57 140.816 678.77 139.553C676.98 138.281 675.931 136.55 675.623 134.363L681.872 134.035C682.061 134.96 682.518 135.665 683.244 136.153C683.97 136.63 684.9 136.869 686.033 136.869C687.147 136.869 688.042 136.655 688.718 136.227C689.404 135.79 689.752 135.228 689.762 134.542C689.752 133.965 689.509 133.493 689.031 133.125C688.554 132.747 687.818 132.459 686.824 132.26L682.857 131.469C680.619 131.022 678.954 130.246 677.86 129.143C676.776 128.039 676.234 126.632 676.234 124.922C676.234 123.45 676.632 122.183 677.428 121.119C678.233 120.055 679.362 119.234 680.813 118.658C682.275 118.081 683.985 117.793 685.944 117.793C688.837 117.793 691.114 118.404 692.775 119.627C694.445 120.85 695.42 122.516 695.698 124.624ZM700.221 149.591V118.091H706.485V121.939H706.769C707.047 121.322 707.45 120.696 707.977 120.06C708.514 119.413 709.21 118.876 710.065 118.449C710.93 118.011 712.004 117.793 713.286 117.793C714.957 117.793 716.498 118.23 717.91 119.105C719.322 119.97 720.45 121.278 721.296 123.028C722.141 124.768 722.563 126.95 722.563 129.575C722.563 132.131 722.151 134.288 721.325 136.048C720.51 137.798 719.396 139.126 717.985 140.031C716.583 140.925 715.012 141.373 713.271 141.373C712.039 141.373 710.99 141.169 710.124 140.761C709.269 140.354 708.568 139.842 708.021 139.225C707.475 138.599 707.057 137.967 706.769 137.331H706.575V149.591H700.221ZM706.441 129.545C706.441 130.908 706.629 132.096 707.007 133.11C707.385 134.124 707.932 134.915 708.648 135.482C709.364 136.038 710.234 136.317 711.258 136.317C712.292 136.317 713.167 136.033 713.883 135.467C714.599 134.89 715.141 134.094 715.509 133.08C715.887 132.056 716.075 130.878 716.075 129.545C716.075 128.223 715.892 127.06 715.524 126.055C715.156 125.051 714.614 124.266 713.898 123.699C713.182 123.132 712.302 122.849 711.258 122.849C710.224 122.849 709.349 123.122 708.633 123.669C707.927 124.216 707.385 124.991 707.007 125.996C706.629 127 706.441 128.183 706.441 129.545ZM733.332 141.433C731.87 141.433 730.568 141.179 729.424 140.672C728.281 140.155 727.376 139.394 726.71 138.39C726.053 137.376 725.725 136.113 725.725 134.602C725.725 133.329 725.959 132.26 726.426 131.395C726.894 130.53 727.53 129.834 728.335 129.307C729.141 128.78 730.056 128.382 731.08 128.114C732.114 127.845 733.198 127.656 734.331 127.547C735.664 127.408 736.737 127.278 737.553 127.159C738.368 127.03 738.96 126.841 739.328 126.592C739.695 126.344 739.879 125.976 739.879 125.489V125.399C739.879 124.455 739.581 123.724 738.985 123.207C738.398 122.69 737.563 122.431 736.479 122.431C735.335 122.431 734.426 122.685 733.749 123.192C733.073 123.689 732.626 124.315 732.407 125.071L726.531 124.594C726.829 123.202 727.416 121.999 728.291 120.984C729.166 119.96 730.294 119.175 731.676 118.628C733.068 118.071 734.679 117.793 736.509 117.793C737.781 117.793 738.999 117.942 740.163 118.24C741.336 118.538 742.375 119.001 743.28 119.627C744.195 120.254 744.916 121.059 745.443 122.043C745.97 123.018 746.233 124.186 746.233 125.548V141H740.208V137.823H740.029C739.661 138.539 739.169 139.17 738.552 139.717C737.936 140.254 737.195 140.677 736.33 140.985C735.465 141.283 734.465 141.433 733.332 141.433ZM735.151 137.048C736.086 137.048 736.911 136.864 737.627 136.496C738.343 136.118 738.905 135.611 739.313 134.974C739.72 134.338 739.924 133.617 739.924 132.812V130.381C739.725 130.51 739.452 130.629 739.104 130.739C738.766 130.838 738.383 130.933 737.955 131.022C737.528 131.102 737.1 131.176 736.673 131.246C736.245 131.305 735.857 131.36 735.509 131.41C734.764 131.519 734.112 131.693 733.556 131.932C732.999 132.17 732.566 132.494 732.258 132.901C731.95 133.299 731.796 133.796 731.796 134.393C731.796 135.258 732.109 135.919 732.735 136.376C733.372 136.824 734.177 137.048 735.151 137.048ZM761.513 141.447C759.167 141.447 757.148 140.95 755.458 139.956C753.778 138.952 752.485 137.56 751.58 135.78C750.685 134 750.238 131.952 750.238 129.635C750.238 127.288 750.69 125.23 751.595 123.46C752.51 121.68 753.807 120.293 755.488 119.299C757.168 118.295 759.167 117.793 761.483 117.793C763.482 117.793 765.232 118.156 766.733 118.881C768.235 119.607 769.423 120.626 770.298 121.939C771.173 123.251 771.655 124.793 771.745 126.562H765.749C765.58 125.419 765.133 124.499 764.407 123.803C763.691 123.097 762.751 122.744 761.588 122.744C760.604 122.744 759.743 123.013 759.008 123.55C758.282 124.077 757.715 124.847 757.307 125.862C756.9 126.876 756.696 128.104 756.696 129.545C756.696 131.007 756.895 132.25 757.292 133.274C757.7 134.298 758.272 135.079 759.008 135.616C759.743 136.153 760.604 136.421 761.588 136.421C762.314 136.421 762.965 136.272 763.542 135.974C764.128 135.675 764.611 135.243 764.988 134.676C765.376 134.099 765.63 133.408 765.749 132.603H771.745C771.645 134.353 771.168 135.894 770.313 137.227C769.468 138.549 768.3 139.583 766.808 140.329C765.317 141.075 763.552 141.447 761.513 141.447ZM786.253 141.447C783.897 141.447 781.868 140.97 780.168 140.016C778.478 139.051 777.175 137.689 776.26 135.929C775.346 134.159 774.888 132.066 774.888 129.65C774.888 127.293 775.346 125.225 776.26 123.445C777.175 121.665 778.463 120.278 780.123 119.284C781.794 118.29 783.752 117.793 786 117.793C787.511 117.793 788.918 118.036 790.221 118.523C791.533 119.001 792.676 119.722 793.651 120.686C794.635 121.651 795.401 122.864 795.948 124.325C796.495 125.777 796.768 127.477 796.768 129.426V131.171H777.424V127.234H790.787C790.787 126.319 790.588 125.509 790.191 124.803C789.793 124.097 789.241 123.545 788.535 123.147C787.839 122.739 787.029 122.536 786.104 122.536C785.14 122.536 784.284 122.759 783.539 123.207C782.803 123.644 782.226 124.236 781.809 124.982C781.391 125.717 781.177 126.538 781.167 127.442V131.186C781.167 132.32 781.376 133.299 781.794 134.124C782.221 134.95 782.823 135.586 783.598 136.033C784.374 136.481 785.294 136.705 786.358 136.705C787.064 136.705 787.71 136.605 788.297 136.406C788.883 136.207 789.385 135.909 789.803 135.511C790.221 135.114 790.539 134.626 790.757 134.05L796.634 134.438C796.336 135.849 795.724 137.082 794.799 138.136C793.885 139.18 792.701 139.996 791.25 140.582C789.808 141.159 788.142 141.447 786.253 141.447ZM810.754 141V110.455H822.806C825.112 110.455 827.081 110.867 828.712 111.692C830.352 112.508 831.6 113.666 832.455 115.168C833.32 116.659 833.753 118.414 833.753 120.433C833.753 122.461 833.316 124.206 832.441 125.668C831.566 127.119 830.298 128.233 828.637 129.009C826.987 129.784 824.988 130.172 822.642 130.172H814.573V124.982H821.597C822.83 124.982 823.855 124.812 824.67 124.474C825.485 124.136 826.092 123.629 826.49 122.953C826.897 122.277 827.101 121.437 827.101 120.433C827.101 119.418 826.897 118.563 826.49 117.867C826.092 117.171 825.48 116.644 824.655 116.286C823.84 115.918 822.811 115.734 821.568 115.734H817.213V141H810.754ZM827.25 127.099L834.842 141H827.713L820.285 127.099H827.25ZM848.269 141.447C845.912 141.447 843.884 140.97 842.184 140.016C840.493 139.051 839.191 137.689 838.276 135.929C837.361 134.159 836.904 132.066 836.904 129.65C836.904 127.293 837.361 125.225 838.276 123.445C839.191 121.665 840.478 120.278 842.139 119.284C843.809 118.29 845.768 117.793 848.015 117.793C849.527 117.793 850.934 118.036 852.236 118.523C853.549 119.001 854.692 119.722 855.667 120.686C856.651 121.651 857.417 122.864 857.963 124.325C858.51 125.777 858.784 127.477 858.784 129.426V131.171H839.439V127.234H852.803C852.803 126.319 852.604 125.509 852.206 124.803C851.809 124.097 851.257 123.545 850.551 123.147C849.855 122.739 849.044 122.536 848.12 122.536C847.155 122.536 846.3 122.759 845.554 123.207C844.819 123.644 844.242 124.236 843.824 124.982C843.407 125.717 843.193 126.538 843.183 127.442V131.186C843.183 132.32 843.392 133.299 843.809 134.124C844.237 134.95 844.838 135.586 845.614 136.033C846.39 136.481 847.309 136.705 848.373 136.705C849.079 136.705 849.725 136.605 850.312 136.406C850.899 136.207 851.401 135.909 851.819 135.511C852.236 135.114 852.554 134.626 852.773 134.05L858.65 134.438C858.351 135.849 857.74 137.082 856.815 138.136C855.9 139.18 854.717 139.996 853.265 140.582C851.824 141.159 850.158 141.447 848.269 141.447ZM881.991 124.624L876.174 124.982C876.075 124.484 875.861 124.037 875.533 123.639C875.205 123.232 874.772 122.908 874.235 122.67C873.708 122.421 873.077 122.297 872.341 122.297C871.357 122.297 870.527 122.506 869.85 122.923C869.174 123.331 868.836 123.878 868.836 124.564C868.836 125.111 869.055 125.573 869.493 125.951C869.93 126.329 870.681 126.632 871.745 126.861L875.891 127.696C878.118 128.153 879.779 128.889 880.873 129.903C881.966 130.918 882.513 132.25 882.513 133.901C882.513 135.402 882.071 136.719 881.186 137.853C880.311 138.987 879.108 139.871 877.576 140.508C876.055 141.134 874.3 141.447 872.311 141.447C869.279 141.447 866.863 140.816 865.063 139.553C863.273 138.281 862.224 136.55 861.916 134.363L868.165 134.035C868.354 134.96 868.811 135.665 869.537 136.153C870.263 136.63 871.193 136.869 872.326 136.869C873.44 136.869 874.335 136.655 875.011 136.227C875.697 135.79 876.045 135.228 876.055 134.542C876.045 133.965 875.801 133.493 875.324 133.125C874.847 132.747 874.111 132.459 873.117 132.26L869.15 131.469C866.912 131.022 865.247 130.246 864.153 129.143C863.069 128.039 862.527 126.632 862.527 124.922C862.527 123.45 862.925 122.183 863.721 121.119C864.526 120.055 865.654 119.234 867.106 118.658C868.568 118.081 870.278 117.793 872.237 117.793C875.13 117.793 877.407 118.404 879.068 119.627C880.738 120.85 881.713 122.516 881.991 124.624ZM896.865 141.447C894.548 141.447 892.545 140.955 890.854 139.971C889.174 138.977 887.876 137.594 886.961 135.825C886.047 134.045 885.589 131.982 885.589 129.635C885.589 127.268 886.047 125.2 886.961 123.43C887.876 121.651 889.174 120.268 890.854 119.284C892.545 118.29 894.548 117.793 896.865 117.793C899.182 117.793 901.18 118.29 902.861 119.284C904.551 120.268 905.854 121.651 906.768 123.43C907.683 125.2 908.14 127.268 908.14 129.635C908.14 131.982 907.683 134.045 906.768 135.825C905.854 137.594 904.551 138.977 902.861 139.971C901.18 140.955 899.182 141.447 896.865 141.447ZM896.895 136.526C897.949 136.526 898.829 136.227 899.535 135.631C900.241 135.024 900.773 134.199 901.131 133.155C901.498 132.111 901.682 130.923 901.682 129.59C901.682 128.258 901.498 127.07 901.131 126.026C900.773 124.982 900.241 124.156 899.535 123.55C898.829 122.943 897.949 122.64 896.895 122.64C895.831 122.64 894.936 122.943 894.21 123.55C893.494 124.156 892.952 124.982 892.584 126.026C892.226 127.07 892.047 128.258 892.047 129.59C892.047 130.923 892.226 132.111 892.584 133.155C892.952 134.199 893.494 135.024 894.21 135.631C894.936 136.227 895.831 136.526 896.895 136.526ZM918.626 110.455V141H912.272V110.455H918.626ZM945.073 118.091L937.064 141H929.905L921.896 118.091H928.607L933.365 134.482H933.604L938.347 118.091H945.073ZM958.027 141.447C955.67 141.447 953.642 140.97 951.941 140.016C950.251 139.051 948.949 137.689 948.034 135.929C947.119 134.159 946.662 132.066 946.662 129.65C946.662 127.293 947.119 125.225 948.034 123.445C948.949 121.665 950.236 120.278 951.897 119.284C953.567 118.29 955.526 117.793 957.773 117.793C959.284 117.793 960.691 118.036 961.994 118.523C963.306 119.001 964.45 119.722 965.424 120.686C966.409 121.651 967.174 122.864 967.721 124.325C968.268 125.777 968.542 127.477 968.542 129.426V131.171H949.197V127.234H962.561C962.561 126.319 962.362 125.509 961.964 124.803C961.566 124.097 961.015 123.545 960.309 123.147C959.613 122.739 958.802 122.536 957.877 122.536C956.913 122.536 956.058 122.759 955.312 123.207C954.576 123.644 954 124.236 953.582 124.982C953.164 125.717 952.951 126.538 952.941 127.442V131.186C952.941 132.32 953.15 133.299 953.567 134.124C953.995 134.95 954.596 135.586 955.372 136.033C956.147 136.481 957.067 136.705 958.131 136.705C958.837 136.705 959.483 136.605 960.07 136.406C960.657 136.207 961.159 135.909 961.576 135.511C961.994 135.114 962.312 134.626 962.531 134.05L968.407 134.438C968.109 135.849 967.498 137.082 966.573 138.136C965.658 139.18 964.475 139.996 963.023 140.582C961.581 141.159 959.916 141.447 958.027 141.447ZM972.688 141V118.091H978.848V122.088H979.086C979.504 120.666 980.205 119.592 981.189 118.866C982.174 118.131 983.307 117.763 984.59 117.763C984.908 117.763 985.251 117.783 985.619 117.822C985.987 117.862 986.31 117.917 986.588 117.987V123.624C986.29 123.535 985.877 123.455 985.35 123.386C984.824 123.316 984.341 123.281 983.904 123.281C982.969 123.281 982.134 123.485 981.398 123.893C980.672 124.29 980.096 124.847 979.668 125.563C979.25 126.279 979.042 127.104 979.042 128.039V141H972.688Z" fill="#F2F2FF"/>
<path d="M463.17 161.909V175H461.585V161.909H463.17ZM466.144 175V165.182H467.602V166.716H467.73C467.934 166.192 468.264 165.785 468.72 165.495C469.176 165.201 469.724 165.054 470.363 165.054C471.011 165.054 471.55 165.201 471.98 165.495C472.415 165.785 472.754 166.192 472.997 166.716H473.099C473.35 166.209 473.727 165.806 474.23 165.508C474.733 165.205 475.336 165.054 476.039 165.054C476.917 165.054 477.635 165.329 478.193 165.879C478.752 166.424 479.031 167.274 479.031 168.429V175H477.522V168.429C477.522 167.705 477.324 167.187 476.928 166.876C476.531 166.565 476.065 166.409 475.528 166.409C474.838 166.409 474.303 166.618 473.923 167.036C473.544 167.449 473.355 167.973 473.355 168.608V175H471.82V168.276C471.82 167.717 471.639 167.268 471.277 166.927C470.915 166.582 470.448 166.409 469.877 166.409C469.485 166.409 469.119 166.513 468.778 166.722C468.441 166.931 468.169 167.221 467.96 167.592C467.755 167.958 467.653 168.382 467.653 168.864V175H466.144ZM481.789 178.682V165.182H483.246V166.741H483.425C483.536 166.571 483.689 166.354 483.885 166.089C484.086 165.821 484.371 165.582 484.742 165.374C485.117 165.161 485.624 165.054 486.263 165.054C487.09 165.054 487.819 165.261 488.449 165.674C489.08 166.087 489.572 166.673 489.926 167.432C490.28 168.19 490.456 169.085 490.456 170.116C490.456 171.156 490.28 172.058 489.926 172.82C489.572 173.579 489.082 174.167 488.456 174.585C487.829 174.998 487.107 175.205 486.289 175.205C485.658 175.205 485.153 175.1 484.774 174.891C484.395 174.678 484.103 174.437 483.898 174.169C483.694 173.896 483.536 173.67 483.425 173.491H483.297V178.682H481.789ZM483.272 170.091C483.272 170.832 483.381 171.487 483.598 172.053C483.815 172.616 484.133 173.057 484.55 173.376C484.968 173.692 485.479 173.849 486.084 173.849C486.715 173.849 487.241 173.683 487.663 173.351C488.089 173.014 488.409 172.562 488.622 171.996C488.839 171.425 488.948 170.79 488.948 170.091C488.948 169.401 488.841 168.778 488.628 168.224C488.42 167.666 488.102 167.225 487.676 166.901C487.254 166.573 486.724 166.409 486.084 166.409C485.471 166.409 484.955 166.565 484.537 166.876C484.12 167.183 483.805 167.613 483.591 168.167C483.378 168.717 483.272 169.358 483.272 170.091ZM496.746 175.205C495.86 175.205 495.082 174.994 494.413 174.572C493.748 174.15 493.229 173.56 492.854 172.801C492.483 172.043 492.297 171.156 492.297 170.142C492.297 169.119 492.483 168.227 492.854 167.464C493.229 166.701 493.748 166.109 494.413 165.687C495.082 165.265 495.86 165.054 496.746 165.054C497.633 165.054 498.408 165.265 499.073 165.687C499.742 166.109 500.262 166.701 500.633 167.464C501.008 168.227 501.195 169.119 501.195 170.142C501.195 171.156 501.008 172.043 500.633 172.801C500.262 173.56 499.742 174.15 499.073 174.572C498.408 174.994 497.633 175.205 496.746 175.205ZM496.746 173.849C497.42 173.849 497.974 173.677 498.408 173.332C498.843 172.987 499.165 172.533 499.373 171.97C499.582 171.408 499.687 170.798 499.687 170.142C499.687 169.486 499.582 168.874 499.373 168.308C499.165 167.741 498.843 167.283 498.408 166.933C497.974 166.584 497.42 166.409 496.746 166.409C496.073 166.409 495.519 166.584 495.084 166.933C494.65 167.283 494.328 167.741 494.119 168.308C493.91 168.874 493.806 169.486 493.806 170.142C493.806 170.798 493.91 171.408 494.119 171.97C494.328 172.533 494.65 172.987 495.084 173.332C495.519 173.677 496.073 173.849 496.746 173.849ZM503.498 175V165.182H504.955V166.665H505.058C505.237 166.179 505.56 165.785 506.029 165.482C506.498 165.18 507.026 165.028 507.614 165.028C507.725 165.028 507.864 165.031 508.03 165.035C508.196 165.039 508.322 165.045 508.407 165.054V166.588C508.356 166.575 508.239 166.556 508.055 166.531C507.876 166.501 507.687 166.486 507.487 166.486C507.009 166.486 506.583 166.586 506.208 166.786C505.837 166.982 505.543 167.255 505.326 167.604C505.113 167.95 505.006 168.344 505.006 168.787V175H503.498ZM515.08 165.182V166.46H509.992V165.182H515.08ZM511.475 162.83H512.984V172.188C512.984 172.614 513.045 172.933 513.169 173.146C513.297 173.355 513.459 173.496 513.655 173.568C513.855 173.636 514.066 173.67 514.288 173.67C514.454 173.67 514.59 173.662 514.697 173.645C514.803 173.624 514.888 173.607 514.952 173.594L515.259 174.949C515.157 174.987 515.014 175.026 514.831 175.064C514.648 175.107 514.415 175.128 514.134 175.128C513.708 175.128 513.29 175.036 512.881 174.853C512.477 174.67 512.14 174.391 511.871 174.016C511.607 173.641 511.475 173.168 511.475 172.597V162.83ZM519.599 173.21L519.497 173.901C519.425 174.386 519.314 174.906 519.165 175.46C519.02 176.014 518.869 176.536 518.711 177.026C518.553 177.516 518.423 177.906 518.321 178.196H517.17C517.226 177.923 517.298 177.563 517.388 177.116C517.477 176.668 517.567 176.168 517.656 175.614C517.75 175.064 517.827 174.501 517.886 173.926L517.963 173.21H519.599ZM531.573 175.205C530.627 175.205 529.811 174.996 529.125 174.578C528.443 174.156 527.917 173.568 527.546 172.814C527.18 172.055 526.997 171.173 526.997 170.168C526.997 169.162 527.18 168.276 527.546 167.509C527.917 166.737 528.433 166.136 529.093 165.706C529.758 165.271 530.534 165.054 531.42 165.054C531.931 165.054 532.436 165.139 532.935 165.31C533.433 165.48 533.887 165.757 534.296 166.141C534.705 166.52 535.031 167.023 535.274 167.649C535.517 168.276 535.639 169.047 535.639 169.963V170.602H528.07V169.298H534.105C534.105 168.744 533.994 168.25 533.772 167.815C533.555 167.381 533.244 167.038 532.839 166.786C532.438 166.535 531.965 166.409 531.42 166.409C530.819 166.409 530.299 166.558 529.86 166.857C529.426 167.151 529.091 167.534 528.857 168.007C528.622 168.48 528.505 168.987 528.505 169.528V170.398C528.505 171.139 528.633 171.768 528.889 172.283C529.149 172.795 529.509 173.185 529.969 173.453C530.429 173.717 530.964 173.849 531.573 173.849C531.97 173.849 532.328 173.794 532.647 173.683C532.971 173.568 533.25 173.398 533.485 173.172C533.719 172.942 533.9 172.656 534.028 172.315L535.485 172.724C535.332 173.219 535.074 173.653 534.712 174.028C534.35 174.399 533.902 174.689 533.369 174.898C532.837 175.102 532.238 175.205 531.573 175.205ZM538.795 165.182L541.147 169.196L543.499 165.182H545.238L542.067 170.091L545.238 175H543.499L541.147 171.19L538.795 175H537.056L540.175 170.091L537.056 165.182H538.795ZM547.39 178.682V165.182H548.848V166.741H549.027C549.138 166.571 549.291 166.354 549.487 166.089C549.687 165.821 549.973 165.582 550.344 165.374C550.719 165.161 551.226 165.054 551.865 165.054C552.692 165.054 553.42 165.261 554.051 165.674C554.682 166.087 555.174 166.673 555.528 167.432C555.881 168.19 556.058 169.085 556.058 170.116C556.058 171.156 555.881 172.058 555.528 172.82C555.174 173.579 554.684 174.167 554.057 174.585C553.431 174.998 552.709 175.205 551.89 175.205C551.26 175.205 550.755 175.1 550.376 174.891C549.996 174.678 549.704 174.437 549.5 174.169C549.295 173.896 549.138 173.67 549.027 173.491H548.899V178.682H547.39ZM548.873 170.091C548.873 170.832 548.982 171.487 549.199 172.053C549.417 172.616 549.734 173.057 550.152 173.376C550.569 173.692 551.081 173.849 551.686 173.849C552.317 173.849 552.843 173.683 553.265 173.351C553.691 173.014 554.01 172.562 554.224 171.996C554.441 171.425 554.55 170.79 554.55 170.091C554.55 169.401 554.443 168.778 554.23 168.224C554.021 167.666 553.704 167.225 553.278 166.901C552.856 166.573 552.325 166.409 551.686 166.409C551.072 166.409 550.557 166.565 550.139 166.876C549.721 167.183 549.406 167.613 549.193 168.167C548.98 168.717 548.873 169.358 548.873 170.091ZM561.248 175.23C560.626 175.23 560.062 175.113 559.555 174.879C559.047 174.64 558.645 174.297 558.346 173.849C558.048 173.398 557.899 172.852 557.899 172.213C557.899 171.651 558.01 171.195 558.231 170.845C558.453 170.491 558.749 170.214 559.12 170.014C559.491 169.814 559.9 169.665 560.347 169.567C560.799 169.464 561.253 169.384 561.709 169.324C562.305 169.247 562.789 169.19 563.16 169.151C563.535 169.109 563.807 169.038 563.978 168.94C564.153 168.842 564.24 168.672 564.24 168.429V168.378C564.24 167.747 564.067 167.257 563.722 166.908C563.381 166.558 562.863 166.384 562.169 166.384C561.449 166.384 560.884 166.541 560.475 166.857C560.066 167.172 559.778 167.509 559.612 167.866L558.18 167.355C558.436 166.759 558.777 166.294 559.203 165.962C559.633 165.625 560.102 165.391 560.609 165.259C561.121 165.122 561.623 165.054 562.118 165.054C562.433 165.054 562.795 165.092 563.204 165.169C563.618 165.241 564.016 165.393 564.4 165.623C564.787 165.853 565.109 166.2 565.365 166.665C565.621 167.129 565.748 167.751 565.748 168.531V175H564.24V173.67H564.163C564.061 173.884 563.89 174.112 563.652 174.354C563.413 174.597 563.096 174.804 562.699 174.974C562.303 175.145 561.819 175.23 561.248 175.23ZM561.479 173.875C562.075 173.875 562.578 173.758 562.987 173.523C563.4 173.289 563.711 172.987 563.92 172.616C564.133 172.245 564.24 171.855 564.24 171.446V170.065C564.176 170.142 564.035 170.212 563.818 170.276C563.605 170.336 563.358 170.389 563.077 170.436C562.8 170.479 562.529 170.517 562.265 170.551C562.005 170.581 561.794 170.607 561.632 170.628C561.24 170.679 560.873 170.762 560.532 170.877C560.196 170.988 559.923 171.156 559.714 171.382C559.51 171.604 559.407 171.906 559.407 172.29C559.407 172.814 559.601 173.21 559.989 173.479C560.381 173.743 560.878 173.875 561.479 173.875ZM570.01 169.094V175H568.502V165.182H569.959V166.716H570.087C570.317 166.217 570.667 165.817 571.135 165.514C571.604 165.207 572.209 165.054 572.951 165.054C573.615 165.054 574.197 165.19 574.696 165.463C575.194 165.732 575.582 166.141 575.859 166.69C576.136 167.236 576.275 167.926 576.275 168.761V175H574.766V168.864C574.766 168.092 574.566 167.491 574.165 167.061C573.765 166.626 573.215 166.409 572.516 166.409C572.034 166.409 571.604 166.513 571.225 166.722C570.85 166.931 570.554 167.236 570.336 167.636C570.119 168.037 570.01 168.523 570.01 169.094ZM582.738 175.205C581.92 175.205 581.198 174.998 580.572 174.585C579.945 174.167 579.455 173.579 579.101 172.82C578.748 172.058 578.571 171.156 578.571 170.116C578.571 169.085 578.748 168.19 579.101 167.432C579.455 166.673 579.947 166.087 580.578 165.674C581.209 165.261 581.937 165.054 582.764 165.054C583.403 165.054 583.908 165.161 584.279 165.374C584.654 165.582 584.939 165.821 585.135 166.089C585.336 166.354 585.491 166.571 585.602 166.741H585.73V161.909H587.238V175H585.781V173.491H585.602C585.491 173.67 585.334 173.896 585.129 174.169C584.925 174.437 584.633 174.678 584.253 174.891C583.874 175.1 583.369 175.205 582.738 175.205ZM582.943 173.849C583.548 173.849 584.059 173.692 584.477 173.376C584.895 173.057 585.212 172.616 585.43 172.053C585.647 171.487 585.756 170.832 585.756 170.091C585.756 169.358 585.649 168.717 585.436 168.167C585.223 167.613 584.907 167.183 584.49 166.876C584.072 166.565 583.557 166.409 582.943 166.409C582.304 166.409 581.771 166.573 581.345 166.901C580.923 167.225 580.606 167.666 580.393 168.224C580.184 168.778 580.079 169.401 580.079 170.091C580.079 170.79 580.186 171.425 580.399 171.996C580.616 172.562 580.936 173.014 581.358 173.351C581.784 173.683 582.312 173.849 582.943 173.849ZM592.461 173.21L592.358 173.901C592.286 174.386 592.175 174.906 592.026 175.46C591.881 176.014 591.73 176.536 591.572 177.026C591.415 177.516 591.285 177.906 591.182 178.196H590.032C590.087 177.923 590.16 177.563 590.249 177.116C590.339 176.668 590.428 176.168 590.518 175.614C590.611 175.064 590.688 174.501 590.748 173.926L590.824 173.21H592.461ZM603.207 175.23C602.585 175.23 602.021 175.113 601.513 174.879C601.006 174.64 600.604 174.297 600.305 173.849C600.007 173.398 599.858 172.852 599.858 172.213C599.858 171.651 599.969 171.195 600.19 170.845C600.412 170.491 600.708 170.214 601.079 170.014C601.45 169.814 601.859 169.665 602.306 169.567C602.758 169.464 603.212 169.384 603.668 169.324C604.264 169.247 604.748 169.19 605.119 169.151C605.494 169.109 605.766 169.038 605.937 168.94C606.112 168.842 606.199 168.672 606.199 168.429V168.378C606.199 167.747 606.026 167.257 605.681 166.908C605.34 166.558 604.822 166.384 604.128 166.384C603.408 166.384 602.843 166.541 602.434 166.857C602.025 167.172 601.737 167.509 601.571 167.866L600.139 167.355C600.395 166.759 600.736 166.294 601.162 165.962C601.592 165.625 602.061 165.391 602.568 165.259C603.08 165.122 603.582 165.054 604.077 165.054C604.392 165.054 604.754 165.092 605.163 165.169C605.577 165.241 605.975 165.393 606.359 165.623C606.746 165.853 607.068 166.2 607.324 166.665C607.58 167.129 607.707 167.751 607.707 168.531V175H606.199V173.67H606.122C606.02 173.884 605.849 174.112 605.611 174.354C605.372 174.597 605.055 174.804 604.658 174.974C604.262 175.145 603.778 175.23 603.207 175.23ZM603.438 173.875C604.034 173.875 604.537 173.758 604.946 173.523C605.359 173.289 605.67 172.987 605.879 172.616C606.092 172.245 606.199 171.855 606.199 171.446V170.065C606.135 170.142 605.994 170.212 605.777 170.276C605.564 170.336 605.317 170.389 605.036 170.436C604.759 170.479 604.488 170.517 604.224 170.551C603.964 170.581 603.753 170.607 603.591 170.628C603.199 170.679 602.832 170.762 602.491 170.877C602.155 170.988 601.882 171.156 601.673 171.382C601.469 171.604 601.366 171.906 601.366 172.29C601.366 172.814 601.56 173.21 601.948 173.479C602.34 173.743 602.837 173.875 603.438 173.875ZM611.969 169.094V175H610.461V165.182H611.918V166.716H612.046C612.276 166.217 612.626 165.817 613.094 165.514C613.563 165.207 614.168 165.054 614.91 165.054C615.574 165.054 616.156 165.19 616.655 165.463C617.153 165.732 617.541 166.141 617.818 166.69C618.095 167.236 618.233 167.926 618.233 168.761V175H616.725V168.864C616.725 168.092 616.525 167.491 616.124 167.061C615.724 166.626 615.174 166.409 614.475 166.409C613.993 166.409 613.563 166.513 613.184 166.722C612.809 166.931 612.513 167.236 612.295 167.636C612.078 168.037 611.969 168.523 611.969 169.094ZM624.697 175.205C623.879 175.205 623.157 174.998 622.531 174.585C621.904 174.167 621.414 173.579 621.06 172.82C620.707 172.058 620.53 171.156 620.53 170.116C620.53 169.085 620.707 168.19 621.06 167.432C621.414 166.673 621.906 166.087 622.537 165.674C623.168 165.261 623.896 165.054 624.723 165.054C625.362 165.054 625.867 165.161 626.238 165.374C626.613 165.582 626.898 165.821 627.094 166.089C627.295 166.354 627.45 166.571 627.561 166.741H627.689V161.909H629.197V175H627.74V173.491H627.561C627.45 173.67 627.293 173.896 627.088 174.169C626.884 174.437 626.592 174.678 626.212 174.891C625.833 175.1 625.328 175.205 624.697 175.205ZM624.902 173.849C625.507 173.849 626.018 173.692 626.436 173.376C626.854 173.057 627.171 172.616 627.388 172.053C627.606 171.487 627.714 170.832 627.714 170.091C627.714 169.358 627.608 168.717 627.395 168.167C627.182 167.613 626.866 167.183 626.449 166.876C626.031 166.565 625.516 166.409 624.902 166.409C624.263 166.409 623.73 166.573 623.304 166.901C622.882 167.225 622.565 167.666 622.352 168.224C622.143 168.778 622.038 169.401 622.038 170.091C622.038 170.79 622.145 171.425 622.358 171.996C622.575 172.562 622.895 173.014 623.317 173.351C623.743 173.683 624.271 173.849 624.902 173.849ZM644.187 167.381L642.832 167.764C642.746 167.538 642.621 167.319 642.455 167.106C642.293 166.888 642.071 166.71 641.79 166.569C641.509 166.428 641.148 166.358 640.71 166.358C640.109 166.358 639.608 166.496 639.207 166.773C638.811 167.046 638.613 167.393 638.613 167.815C638.613 168.19 638.749 168.487 639.022 168.704C639.295 168.921 639.721 169.102 640.3 169.247L641.758 169.605C642.636 169.818 643.29 170.144 643.72 170.583C644.151 171.018 644.366 171.578 644.366 172.264C644.366 172.827 644.204 173.33 643.88 173.773C643.56 174.216 643.113 174.565 642.538 174.821C641.962 175.077 641.293 175.205 640.531 175.205C639.529 175.205 638.7 174.987 638.044 174.553C637.388 174.118 636.972 173.483 636.798 172.648L638.229 172.29C638.366 172.818 638.624 173.214 639.003 173.479C639.386 173.743 639.887 173.875 640.505 173.875C641.208 173.875 641.766 173.726 642.18 173.428C642.597 173.125 642.806 172.763 642.806 172.341C642.806 172 642.687 171.714 642.448 171.484C642.21 171.25 641.843 171.075 641.349 170.96L639.712 170.577C638.813 170.364 638.153 170.033 637.731 169.586C637.313 169.134 637.104 168.57 637.104 167.892C637.104 167.338 637.26 166.848 637.571 166.422C637.886 165.996 638.315 165.661 638.856 165.418C639.401 165.175 640.019 165.054 640.71 165.054C641.681 165.054 642.444 165.267 642.998 165.693C643.556 166.119 643.952 166.682 644.187 167.381ZM650.625 175.205C649.739 175.205 648.961 174.994 648.292 174.572C647.627 174.15 647.107 173.56 646.732 172.801C646.362 172.043 646.176 171.156 646.176 170.142C646.176 169.119 646.362 168.227 646.732 167.464C647.107 166.701 647.627 166.109 648.292 165.687C648.961 165.265 649.739 165.054 650.625 165.054C651.512 165.054 652.287 165.265 652.952 165.687C653.621 166.109 654.141 166.701 654.512 167.464C654.887 168.227 655.074 169.119 655.074 170.142C655.074 171.156 654.887 172.043 654.512 172.801C654.141 173.56 653.621 174.15 652.952 174.572C652.287 174.994 651.512 175.205 650.625 175.205ZM650.625 173.849C651.298 173.849 651.852 173.677 652.287 173.332C652.722 172.987 653.044 172.533 653.252 171.97C653.461 171.408 653.566 170.798 653.566 170.142C653.566 169.486 653.461 168.874 653.252 168.308C653.044 167.741 652.722 167.283 652.287 166.933C651.852 166.584 651.298 166.409 650.625 166.409C649.952 166.409 649.398 166.584 648.963 166.933C648.529 167.283 648.207 167.741 647.998 168.308C647.789 168.874 647.685 169.486 647.685 170.142C647.685 170.798 647.789 171.408 647.998 171.97C648.207 172.533 648.529 172.987 648.963 173.332C649.398 173.677 649.952 173.849 650.625 173.849ZM657.377 175V165.182H658.834V166.665H658.936C659.115 166.179 659.439 165.785 659.908 165.482C660.377 165.18 660.905 165.028 661.493 165.028C661.604 165.028 661.743 165.031 661.909 165.035C662.075 165.039 662.201 165.045 662.286 165.054V166.588C662.235 166.575 662.118 166.556 661.934 166.531C661.755 166.501 661.566 166.486 661.365 166.486C660.888 166.486 660.462 166.586 660.087 166.786C659.716 166.982 659.422 167.255 659.205 167.604C658.992 167.95 658.885 168.344 658.885 168.787V175H657.377ZM668.959 165.182V166.46H663.871V165.182H668.959ZM665.354 162.83H666.863V172.188C666.863 172.614 666.924 172.933 667.048 173.146C667.176 173.355 667.338 173.496 667.534 173.568C667.734 173.636 667.945 173.67 668.167 173.67C668.333 173.67 668.469 173.662 668.576 173.645C668.682 173.624 668.767 173.607 668.831 173.594L669.138 174.949C669.036 174.987 668.893 175.026 668.71 175.064C668.527 175.107 668.294 175.128 668.013 175.128C667.587 175.128 667.169 175.036 666.76 174.853C666.355 174.67 666.019 174.391 665.75 174.016C665.486 173.641 665.354 173.168 665.354 172.597V162.83ZM676.495 175V161.909H680.919C681.946 161.909 682.785 162.094 683.437 162.465C684.093 162.832 684.579 163.328 684.895 163.955C685.21 164.581 685.368 165.28 685.368 166.051C685.368 166.822 685.21 167.523 684.895 168.154C684.583 168.785 684.102 169.288 683.45 169.663C682.798 170.033 681.963 170.219 680.944 170.219H677.774V168.812H680.893C681.596 168.812 682.161 168.691 682.587 168.448C683.013 168.205 683.322 167.877 683.514 167.464C683.71 167.046 683.808 166.575 683.808 166.051C683.808 165.527 683.71 165.058 683.514 164.645C683.322 164.232 683.011 163.908 682.581 163.673C682.15 163.435 681.579 163.315 680.868 163.315H678.081V175H676.495ZM687.921 175V161.909H689.506V167.739H696.487V161.909H698.072V175H696.487V169.145H689.506V175H687.921ZM701.245 175V161.909H705.669C706.696 161.909 707.535 162.094 708.187 162.465C708.843 162.832 709.329 163.328 709.645 163.955C709.96 164.581 710.118 165.28 710.118 166.051C710.118 166.822 709.96 167.523 709.645 168.154C709.333 168.785 708.852 169.288 708.2 169.663C707.548 170.033 706.713 170.219 705.694 170.219H702.524V168.812H705.643C706.346 168.812 706.911 168.691 707.337 168.448C707.763 168.205 708.072 167.877 708.264 167.464C708.46 167.046 708.558 166.575 708.558 166.051C708.558 165.527 708.46 165.058 708.264 164.645C708.072 164.232 707.761 163.908 707.331 163.673C706.9 163.435 706.329 163.315 705.618 163.315H702.831V175H701.245ZM719.038 169.094V175H717.529V165.182H718.987V166.716H719.114C719.344 166.217 719.694 165.817 720.163 165.514C720.631 165.207 721.237 165.054 721.978 165.054C722.643 165.054 723.224 165.19 723.723 165.463C724.222 165.732 724.609 166.141 724.886 166.69C725.163 167.236 725.302 167.926 725.302 168.761V175H723.793V168.864C723.793 168.092 723.593 167.491 723.192 167.061C722.792 166.626 722.242 166.409 721.543 166.409C721.062 166.409 720.631 166.513 720.252 166.722C719.877 166.931 719.581 167.236 719.364 167.636C719.146 168.037 719.038 168.523 719.038 169.094ZM730.948 175.23C730.325 175.23 729.761 175.113 729.254 174.879C728.747 174.64 728.344 174.297 728.046 173.849C727.747 173.398 727.598 172.852 727.598 172.213C727.598 171.651 727.709 171.195 727.931 170.845C728.152 170.491 728.448 170.214 728.819 170.014C729.19 169.814 729.599 169.665 730.046 169.567C730.498 169.464 730.952 169.384 731.408 169.324C732.004 169.247 732.488 169.19 732.859 169.151C733.234 169.109 733.507 169.038 733.677 168.94C733.852 168.842 733.939 168.672 733.939 168.429V168.378C733.939 167.747 733.767 167.257 733.421 166.908C733.08 166.558 732.563 166.384 731.868 166.384C731.148 166.384 730.583 166.541 730.174 166.857C729.765 167.172 729.477 167.509 729.311 167.866L727.879 167.355C728.135 166.759 728.476 166.294 728.902 165.962C729.333 165.625 729.801 165.391 730.308 165.259C730.82 165.122 731.323 165.054 731.817 165.054C732.132 165.054 732.494 165.092 732.904 165.169C733.317 165.241 733.715 165.393 734.099 165.623C734.487 165.853 734.808 166.2 735.064 166.665C735.32 167.129 735.448 167.751 735.448 168.531V175H733.939V173.67H733.862C733.76 173.884 733.59 174.112 733.351 174.354C733.112 174.597 732.795 174.804 732.399 174.974C732.002 175.145 731.519 175.23 730.948 175.23ZM731.178 173.875C731.774 173.875 732.277 173.758 732.686 173.523C733.1 173.289 733.411 172.987 733.619 172.616C733.833 172.245 733.939 171.855 733.939 171.446V170.065C733.875 170.142 733.735 170.212 733.517 170.276C733.304 170.336 733.057 170.389 732.776 170.436C732.499 170.479 732.228 170.517 731.964 170.551C731.704 170.581 731.493 170.607 731.331 170.628C730.939 170.679 730.573 170.762 730.232 170.877C729.895 170.988 729.622 171.156 729.414 171.382C729.209 171.604 729.107 171.906 729.107 172.29C729.107 172.814 729.301 173.21 729.688 173.479C730.08 173.743 730.577 173.875 731.178 173.875ZM738.201 175V165.182H739.658V166.716H739.786C739.991 166.192 740.321 165.785 740.777 165.495C741.233 165.201 741.781 165.054 742.42 165.054C743.067 165.054 743.607 165.201 744.037 165.495C744.472 165.785 744.81 166.192 745.053 166.716H745.156C745.407 166.209 745.784 165.806 746.287 165.508C746.79 165.205 747.393 165.054 748.096 165.054C748.974 165.054 749.692 165.329 750.25 165.879C750.808 166.424 751.087 167.274 751.087 168.429V175H749.579V168.429C749.579 167.705 749.381 167.187 748.984 166.876C748.588 166.565 748.121 166.409 747.585 166.409C746.894 166.409 746.359 166.618 745.98 167.036C745.601 167.449 745.411 167.973 745.411 168.608V175H743.877V168.276C743.877 167.717 743.696 167.268 743.334 166.927C742.972 166.582 742.505 166.409 741.934 166.409C741.542 166.409 741.175 166.513 740.835 166.722C740.498 166.931 740.225 167.221 740.016 167.592C739.812 167.958 739.71 168.382 739.71 168.864V175H738.201ZM757.962 175.205C757.016 175.205 756.2 174.996 755.514 174.578C754.832 174.156 754.306 173.568 753.935 172.814C753.569 172.055 753.385 171.173 753.385 170.168C753.385 169.162 753.569 168.276 753.935 167.509C754.306 166.737 754.821 166.136 755.482 165.706C756.147 165.271 756.922 165.054 757.809 165.054C758.32 165.054 758.825 165.139 759.324 165.31C759.822 165.48 760.276 165.757 760.685 166.141C761.094 166.52 761.42 167.023 761.663 167.649C761.906 168.276 762.027 169.047 762.027 169.963V170.602H754.459V169.298H760.493C760.493 168.744 760.382 168.25 760.161 167.815C759.944 167.381 759.632 167.038 759.228 166.786C758.827 166.535 758.354 166.409 757.809 166.409C757.208 166.409 756.688 166.558 756.249 166.857C755.814 167.151 755.48 167.534 755.245 168.007C755.011 168.48 754.894 168.987 754.894 169.528V170.398C754.894 171.139 755.022 171.768 755.277 172.283C755.537 172.795 755.897 173.185 756.358 173.453C756.818 173.717 757.353 173.849 757.962 173.849C758.358 173.849 758.716 173.794 759.036 173.683C759.36 173.568 759.639 173.398 759.873 173.172C760.108 172.942 760.289 172.656 760.417 172.315L761.874 172.724C761.721 173.219 761.463 173.653 761.1 174.028C760.738 174.399 760.291 174.689 759.758 174.898C759.225 175.102 758.627 175.205 757.962 175.205ZM771.277 167.381L769.922 167.764C769.836 167.538 769.711 167.319 769.544 167.106C769.382 166.888 769.161 166.71 768.88 166.569C768.598 166.428 768.238 166.358 767.799 166.358C767.199 166.358 766.698 166.496 766.297 166.773C765.901 167.046 765.703 167.393 765.703 167.815C765.703 168.19 765.839 168.487 766.112 168.704C766.385 168.921 766.811 169.102 767.39 169.247L768.848 169.605C769.725 169.818 770.38 170.144 770.81 170.583C771.24 171.018 771.456 171.578 771.456 172.264C771.456 172.827 771.294 173.33 770.97 173.773C770.65 174.216 770.203 174.565 769.627 174.821C769.052 175.077 768.383 175.205 767.62 175.205C766.619 175.205 765.79 174.987 765.134 174.553C764.478 174.118 764.062 173.483 763.887 172.648L765.319 172.29C765.456 172.818 765.713 173.214 766.093 173.479C766.476 173.743 766.977 173.875 767.595 173.875C768.298 173.875 768.856 173.726 769.27 173.428C769.687 173.125 769.896 172.763 769.896 172.341C769.896 172 769.777 171.714 769.538 171.484C769.299 171.25 768.933 171.075 768.439 170.96L766.802 170.577C765.903 170.364 765.243 170.033 764.821 169.586C764.403 169.134 764.194 168.57 764.194 167.892C764.194 167.338 764.35 166.848 764.661 166.422C764.976 165.996 765.404 165.661 765.946 165.418C766.491 165.175 767.109 165.054 767.799 165.054C768.771 165.054 769.534 165.267 770.088 165.693C770.646 166.119 771.042 166.682 771.277 167.381ZM773.726 178.682V165.182H775.184V166.741H775.363C775.474 166.571 775.627 166.354 775.823 166.089C776.023 165.821 776.309 165.582 776.68 165.374C777.055 165.161 777.562 165.054 778.201 165.054C779.028 165.054 779.756 165.261 780.387 165.674C781.018 166.087 781.51 166.673 781.863 167.432C782.217 168.19 782.394 169.085 782.394 170.116C782.394 171.156 782.217 172.058 781.863 172.82C781.51 173.579 781.02 174.167 780.393 174.585C779.767 174.998 779.045 175.205 778.226 175.205C777.596 175.205 777.091 175.1 776.711 174.891C776.332 174.678 776.04 174.437 775.836 174.169C775.631 173.896 775.474 173.67 775.363 173.491H775.235V178.682H773.726ZM775.209 170.091C775.209 170.832 775.318 171.487 775.535 172.053C775.753 172.616 776.07 173.057 776.488 173.376C776.905 173.692 777.417 173.849 778.022 173.849C778.653 173.849 779.179 173.683 779.601 173.351C780.027 173.014 780.346 172.562 780.559 171.996C780.777 171.425 780.885 170.79 780.885 170.091C780.885 169.401 780.779 168.778 780.566 168.224C780.357 167.666 780.04 167.225 779.613 166.901C779.192 166.573 778.661 166.409 778.022 166.409C777.408 166.409 776.893 166.565 776.475 166.876C776.057 167.183 775.742 167.613 775.529 168.167C775.316 168.717 775.209 169.358 775.209 170.091ZM787.584 175.23C786.962 175.23 786.398 175.113 785.89 174.879C785.383 174.64 784.981 174.297 784.682 173.849C784.384 173.398 784.235 172.852 784.235 172.213C784.235 171.651 784.346 171.195 784.567 170.845C784.789 170.491 785.085 170.214 785.456 170.014C785.827 169.814 786.236 169.665 786.683 169.567C787.135 169.464 787.589 169.384 788.045 169.324C788.641 169.247 789.125 169.19 789.496 169.151C789.871 169.109 790.143 169.038 790.314 168.94C790.488 168.842 790.576 168.672 790.576 168.429V168.378C790.576 167.747 790.403 167.257 790.058 166.908C789.717 166.558 789.199 166.384 788.505 166.384C787.785 166.384 787.22 166.541 786.811 166.857C786.402 167.172 786.114 167.509 785.948 167.866L784.516 167.355C784.772 166.759 785.113 166.294 785.539 165.962C785.969 165.625 786.438 165.391 786.945 165.259C787.456 165.122 787.959 165.054 788.454 165.054C788.769 165.054 789.131 165.092 789.54 165.169C789.954 165.241 790.352 165.393 790.736 165.623C791.123 165.853 791.445 166.2 791.701 166.665C791.956 167.129 792.084 167.751 792.084 168.531V175H790.576V173.67H790.499C790.397 173.884 790.226 174.112 789.988 174.354C789.749 174.597 789.432 174.804 789.035 174.974C788.639 175.145 788.155 175.23 787.584 175.23ZM787.814 173.875C788.411 173.875 788.914 173.758 789.323 173.523C789.736 173.289 790.047 172.987 790.256 172.616C790.469 172.245 790.576 171.855 790.576 171.446V170.065C790.512 170.142 790.371 170.212 790.154 170.276C789.941 170.336 789.694 170.389 789.412 170.436C789.135 170.479 788.865 170.517 788.601 170.551C788.341 170.581 788.13 170.607 787.968 170.628C787.576 170.679 787.209 170.762 786.868 170.877C786.532 170.988 786.259 171.156 786.05 171.382C785.846 171.604 785.743 171.906 785.743 172.29C785.743 172.814 785.937 173.21 786.325 173.479C786.717 173.743 787.214 173.875 787.814 173.875ZM798.826 175.205C797.906 175.205 797.113 174.987 796.449 174.553C795.784 174.118 795.272 173.519 794.914 172.756C794.556 171.994 794.377 171.122 794.377 170.142C794.377 169.145 794.561 168.265 794.927 167.502C795.298 166.735 795.814 166.136 796.474 165.706C797.139 165.271 797.914 165.054 798.801 165.054C799.491 165.054 800.113 165.182 800.667 165.438C801.221 165.693 801.675 166.051 802.029 166.511C802.382 166.972 802.602 167.509 802.687 168.122H801.179C801.064 167.675 800.808 167.278 800.412 166.933C800.02 166.584 799.491 166.409 798.826 166.409C798.238 166.409 797.723 166.562 797.279 166.869C796.841 167.172 796.498 167.6 796.25 168.154C796.007 168.704 795.886 169.349 795.886 170.091C795.886 170.849 796.005 171.51 796.244 172.072C796.487 172.635 796.828 173.072 797.267 173.383C797.71 173.694 798.23 173.849 798.826 173.849C799.218 173.849 799.574 173.781 799.894 173.645C800.213 173.509 800.484 173.312 800.706 173.057C800.927 172.801 801.085 172.494 801.179 172.136H802.687C802.602 172.716 802.391 173.238 802.054 173.702C801.722 174.163 801.281 174.529 800.731 174.802C800.186 175.07 799.551 175.205 798.826 175.205ZM809.009 175.205C808.063 175.205 807.247 174.996 806.561 174.578C805.879 174.156 805.353 173.568 804.982 172.814C804.615 172.055 804.432 171.173 804.432 170.168C804.432 169.162 804.615 168.276 804.982 167.509C805.353 166.737 805.868 166.136 806.529 165.706C807.194 165.271 807.969 165.054 808.855 165.054C809.367 165.054 809.872 165.139 810.37 165.31C810.869 165.48 811.323 165.757 811.732 166.141C812.141 166.52 812.467 167.023 812.71 167.649C812.953 168.276 813.074 169.047 813.074 169.963V170.602H805.506V169.298H811.54C811.54 168.744 811.429 168.25 811.208 167.815C810.99 167.381 810.679 167.038 810.275 166.786C809.874 166.535 809.401 166.409 808.855 166.409C808.255 166.409 807.735 166.558 807.296 166.857C806.861 167.151 806.527 167.534 806.292 168.007C806.058 168.48 805.941 168.987 805.941 169.528V170.398C805.941 171.139 806.069 171.768 806.324 172.283C806.584 172.795 806.944 173.185 807.404 173.453C807.865 173.717 808.4 173.849 809.009 173.849C809.405 173.849 809.763 173.794 810.083 173.683C810.407 173.568 810.686 173.398 810.92 173.172C811.154 172.942 811.336 172.656 811.463 172.315L812.921 172.724C812.767 173.219 812.51 173.653 812.147 174.028C811.785 174.399 811.338 174.689 810.805 174.898C810.272 175.102 809.674 175.205 809.009 175.205ZM822.324 167.381L820.968 167.764C820.883 167.538 820.757 167.319 820.591 167.106C820.429 166.888 820.208 166.71 819.926 166.569C819.645 166.428 819.285 166.358 818.846 166.358C818.245 166.358 817.745 166.496 817.344 166.773C816.948 167.046 816.75 167.393 816.75 167.815C816.75 168.19 816.886 168.487 817.159 168.704C817.431 168.921 817.858 169.102 818.437 169.247L819.895 169.605C820.772 169.818 821.426 170.144 821.857 170.583C822.287 171.018 822.502 171.578 822.502 172.264C822.502 172.827 822.341 173.33 822.017 173.773C821.697 174.216 821.25 174.565 820.674 174.821C820.099 175.077 819.43 175.205 818.667 175.205C817.666 175.205 816.837 174.987 816.181 174.553C815.525 174.118 815.109 173.483 814.934 172.648L816.366 172.29C816.502 172.818 816.76 173.214 817.14 173.479C817.523 173.743 818.024 173.875 818.642 173.875C819.345 173.875 819.903 173.726 820.316 173.428C820.734 173.125 820.943 172.763 820.943 172.341C820.943 172 820.824 171.714 820.585 171.484C820.346 171.25 819.98 171.075 819.485 170.96L817.849 170.577C816.95 170.364 816.289 170.033 815.868 169.586C815.45 169.134 815.241 168.57 815.241 167.892C815.241 167.338 815.397 166.848 815.708 166.422C816.023 165.996 816.451 165.661 816.993 165.418C817.538 165.175 818.156 165.054 818.846 165.054C819.818 165.054 820.581 165.267 821.135 165.693C821.693 166.119 822.089 166.682 822.324 167.381ZM832.06 175L829.069 165.182H830.654L832.776 172.699H832.878L834.975 165.182H836.586L838.657 172.673H838.759L840.881 165.182H842.466L839.475 175H837.992L835.844 167.457H835.691L833.543 175H832.06ZM844.461 175V165.182H845.969V175H844.461ZM845.228 163.545C844.934 163.545 844.68 163.445 844.467 163.245C844.258 163.045 844.154 162.804 844.154 162.523C844.154 162.241 844.258 162.001 844.467 161.8C844.68 161.6 844.934 161.5 845.228 161.5C845.522 161.5 845.773 161.6 845.982 161.8C846.195 162.001 846.302 162.241 846.302 162.523C846.302 162.804 846.195 163.045 845.982 163.245C845.773 163.445 845.522 163.545 845.228 163.545ZM853.002 165.182V166.46H847.914V165.182H853.002ZM849.397 162.83H850.906V172.188C850.906 172.614 850.967 172.933 851.091 173.146C851.219 173.355 851.381 173.496 851.577 173.568C851.777 173.636 851.988 173.67 852.21 173.67C852.376 173.67 852.512 173.662 852.619 173.645C852.725 173.624 852.81 173.607 852.874 173.594L853.181 174.949C853.079 174.987 852.936 175.026 852.753 175.064C852.57 175.107 852.337 175.128 852.056 175.128C851.63 175.128 851.212 175.036 850.803 174.853C850.398 174.67 850.062 174.391 849.793 174.016C849.529 173.641 849.397 173.168 849.397 172.597V162.83ZM856.991 169.094V175H855.482V161.909H856.991V166.716H857.119C857.349 166.209 857.694 165.806 858.154 165.508C858.619 165.205 859.237 165.054 860.008 165.054C860.677 165.054 861.263 165.188 861.766 165.457C862.268 165.721 862.658 166.128 862.935 166.678C863.217 167.223 863.357 167.918 863.357 168.761V175H861.849V168.864C861.849 168.084 861.646 167.481 861.241 167.055C860.841 166.624 860.285 166.409 859.573 166.409C859.079 166.409 858.636 166.513 858.244 166.722C857.856 166.931 857.549 167.236 857.323 167.636C857.102 168.037 856.991 168.523 856.991 169.094ZM875.296 175.205C874.35 175.205 873.534 174.996 872.848 174.578C872.166 174.156 871.64 173.568 871.269 172.814C870.903 172.055 870.719 171.173 870.719 170.168C870.719 169.162 870.903 168.276 871.269 167.509C871.64 166.737 872.155 166.136 872.816 165.706C873.481 165.271 874.256 165.054 875.143 165.054C875.654 165.054 876.159 165.139 876.657 165.31C877.156 165.48 877.61 165.757 878.019 166.141C878.428 166.52 878.754 167.023 878.997 167.649C879.24 168.276 879.361 169.047 879.361 169.963V170.602H871.793V169.298H877.827C877.827 168.744 877.716 168.25 877.495 167.815C877.278 167.381 876.966 167.038 876.562 166.786C876.161 166.535 875.688 166.409 875.143 166.409C874.542 166.409 874.022 166.558 873.583 166.857C873.148 167.151 872.814 167.534 872.579 168.007C872.345 168.48 872.228 168.987 872.228 169.528V170.398C872.228 171.139 872.356 171.768 872.611 172.283C872.871 172.795 873.231 173.185 873.692 173.453C874.152 173.717 874.687 173.849 875.296 173.849C875.692 173.849 876.05 173.794 876.37 173.683C876.694 173.568 876.973 173.398 877.207 173.172C877.442 172.942 877.623 172.656 877.751 172.315L879.208 172.724C879.055 173.219 878.797 173.653 878.434 174.028C878.072 174.399 877.625 174.689 877.092 174.898C876.559 175.102 875.961 175.205 875.296 175.205ZM884.545 175.23C883.923 175.23 883.358 175.113 882.851 174.879C882.344 174.64 881.942 174.297 881.643 173.849C881.345 173.398 881.196 172.852 881.196 172.213C881.196 171.651 881.307 171.195 881.528 170.845C881.75 170.491 882.046 170.214 882.417 170.014C882.787 169.814 883.197 169.665 883.644 169.567C884.096 169.464 884.55 169.384 885.006 169.324C885.602 169.247 886.086 169.19 886.456 169.151C886.831 169.109 887.104 169.038 887.275 168.94C887.449 168.842 887.537 168.672 887.537 168.429V168.378C887.537 167.747 887.364 167.257 887.019 166.908C886.678 166.558 886.16 166.384 885.466 166.384C884.746 166.384 884.181 166.541 883.772 166.857C883.363 167.172 883.075 167.509 882.909 167.866L881.477 167.355C881.733 166.759 882.074 166.294 882.5 165.962C882.93 165.625 883.399 165.391 883.906 165.259C884.417 165.122 884.92 165.054 885.415 165.054C885.73 165.054 886.092 165.092 886.501 165.169C886.915 165.241 887.313 165.393 887.697 165.623C888.084 165.853 888.406 166.2 888.662 166.665C888.917 167.129 889.045 167.751 889.045 168.531V175H887.537V173.67H887.46C887.358 173.884 887.187 174.112 886.949 174.354C886.71 174.597 886.393 174.804 885.996 174.974C885.6 175.145 885.116 175.23 884.545 175.23ZM884.775 173.875C885.372 173.875 885.875 173.758 886.284 173.523C886.697 173.289 887.008 172.987 887.217 172.616C887.43 172.245 887.537 171.855 887.537 171.446V170.065C887.473 170.142 887.332 170.212 887.115 170.276C886.902 170.336 886.655 170.389 886.373 170.436C886.096 170.479 885.826 170.517 885.562 170.551C885.302 170.581 885.091 170.607 884.929 170.628C884.537 170.679 884.17 170.762 883.829 170.877C883.493 170.988 883.22 171.156 883.011 171.382C882.807 171.604 882.704 171.906 882.704 172.29C882.704 172.814 882.898 173.21 883.286 173.479C883.678 173.743 884.175 173.875 884.775 173.875ZM898.753 167.381L897.398 167.764C897.313 167.538 897.187 167.319 897.021 167.106C896.859 166.888 896.637 166.71 896.356 166.569C896.075 166.428 895.715 166.358 895.276 166.358C894.675 166.358 894.174 166.496 893.774 166.773C893.377 167.046 893.179 167.393 893.179 167.815C893.179 168.19 893.316 168.487 893.588 168.704C893.861 168.921 894.287 169.102 894.867 169.247L896.324 169.605C897.202 169.818 897.856 170.144 898.287 170.583C898.717 171.018 898.932 171.578 898.932 172.264C898.932 172.827 898.77 173.33 898.446 173.773C898.127 174.216 897.679 174.565 897.104 174.821C896.529 175.077 895.86 175.205 895.097 175.205C894.096 175.205 893.267 174.987 892.61 174.553C891.954 174.118 891.539 173.483 891.364 172.648L892.796 172.29C892.932 172.818 893.19 173.214 893.569 173.479C893.953 173.743 894.453 173.875 895.071 173.875C895.775 173.875 896.333 173.726 896.746 173.428C897.164 173.125 897.373 172.763 897.373 172.341C897.373 172 897.253 171.714 897.015 171.484C896.776 171.25 896.409 171.075 895.915 170.96L894.279 170.577C893.38 170.364 892.719 170.033 892.297 169.586C891.88 169.134 891.671 168.57 891.671 167.892C891.671 167.338 891.826 166.848 892.137 166.422C892.453 165.996 892.881 165.661 893.422 165.418C893.968 165.175 894.586 165.054 895.276 165.054C896.248 165.054 897.01 165.267 897.564 165.693C898.123 166.119 898.519 166.682 898.753 167.381ZM905.319 175.205C904.373 175.205 903.557 174.996 902.871 174.578C902.189 174.156 901.663 173.568 901.292 172.814C900.926 172.055 900.743 171.173 900.743 170.168C900.743 169.162 900.926 168.276 901.292 167.509C901.663 166.737 902.179 166.136 902.839 165.706C903.504 165.271 904.28 165.054 905.166 165.054C905.677 165.054 906.182 165.139 906.681 165.31C907.18 165.48 907.633 165.757 908.042 166.141C908.452 166.52 908.778 167.023 909.02 167.649C909.263 168.276 909.385 169.047 909.385 169.963V170.602H901.817V169.298H907.851C907.851 168.744 907.74 168.25 907.518 167.815C907.301 167.381 906.99 167.038 906.585 166.786C906.184 166.535 905.711 166.409 905.166 166.409C904.565 166.409 904.045 166.558 903.606 166.857C903.172 167.151 902.837 167.534 902.603 168.007C902.368 168.48 902.251 168.987 902.251 169.528V170.398C902.251 171.139 902.379 171.768 902.635 172.283C902.895 172.795 903.255 173.185 903.715 173.453C904.175 173.717 904.71 173.849 905.319 173.849C905.716 173.849 906.074 173.794 906.393 173.683C906.717 173.568 906.996 173.398 907.231 173.172C907.465 172.942 907.646 172.656 907.774 172.315L909.231 172.724C909.078 173.219 908.82 173.653 908.458 174.028C908.096 174.399 907.648 174.689 907.116 174.898C906.583 175.102 905.984 175.205 905.319 175.205Z" fill="#9994B8"/>
</g>
<defs>
<filter id="filter0_f_1_56" x="140" y="-110" width="1000" height="500" filterUnits="userSpaceOnUse" color-interpolation-filters="sRGB">
<feFlood flood-opacity="0" result="BackgroundImageFix"/>
<feBlend mode="normal" in="SourceGraphic" in2="BackgroundImageFix" result="shape"/>
<feGaussianBlur stdDeviation="50" result="effect1_foregroundBlur_1_56"/>
</filter>
<filter id="filter1_d_1_56" x="280.722" y="93.0909" width="51.7614" height="102.727" filterUnits="userSpaceOnUse" color-interpolation-filters="sRGB">
<feFlood flood-opacity="0" result="BackgroundImageFix"/>
<feColorMatrix in="SourceAlpha" type="matrix" values="0 0 0 0 0 0 0 0 0 0 0 0 0 0 0 0 0 0 127 0" result="hardAlpha"/>
<feOffset/>
<feGaussianBlur stdDeviation="7.5"/>
<feColorMatrix type="matrix" values="0 0 0 0 0.38 0 0 0 0 0.82 0 0 0 0 0.96 0 0 0 0.4 0"/>
<feBlend mode="normal" in2="BackgroundImageFix" result="effect1_dropShadow_1_56"/>
<feBlend mode="normal" in="SourceGraphic" in2="effect1_dropShadow_1_56" result="shape"/>
</filter>
<filter id="filter2_d_1_56" x="314.491" y="66.6364" width="93.7642" height="154.489" filterUnits="userSpaceOnUse" color-interpolation-filters="sRGB">
<feFlood flood-opacity="0" result="BackgroundImageFix"/>
<feColorMatrix in="SourceAlpha" type="matrix" values="0 0 0 0 0 0 0 0 0 0 0 0 0 0 0 0 0 0 127 0" result="hardAlpha"/>
<feOffset/>
<feGaussianBlur stdDeviation="12.5"/>
<feColorMatrix type="matrix" values="0 0 0 0 0.55 0 0 0 0 0.36 0 0 0 0 1 0 0 0 0.6 0"/>
<feBlend mode="normal" in2="BackgroundImageFix" result="effect1_dropShadow_1_56"/>
<feBlend mode="normal" in="SourceGraphic" in2="effect1_dropShadow_1_56" result="shape"/>
</filter>
<filter id="filter3_d_1_56" x="387.244" y="93.0909" width="51.7614" height="102.727" filterUnits="userSpaceOnUse" color-interpolation-filters="sRGB">
<feFlood flood-opacity="0" result="BackgroundImageFix"/>
<feColorMatrix in="SourceAlpha" type="matrix" values="0 0 0 0 0 0 0 0 0 0 0 0 0 0 0 0 0 0 127 0" result="hardAlpha"/>
<feOffset/>
<feGaussianBlur stdDeviation="7.5"/>
<feColorMatrix type="matrix" values="0 0 0 0 0.38 0 0 0 0 0.82 0 0 0 0 0.96 0 0 0 0.4 0"/>
<feBlend mode="normal" in2="BackgroundImageFix" result="effect1_dropShadow_1_56"/>
<feBlend mode="normal" in="SourceGraphic" in2="effect1_dropShadow_1_56" result="shape"/>
</filter>
<clipPath id="clip0_1_56">
<path d="M0 16C0 7.16344 7.16344 0 16 0H1264C1272.84 0 1280 7.16344 1280 16V264C1280 272.837 1272.84 280 1264 280H16C7.16343 280 0 272.837 0 264V16Z" fill="white"/>
</clipPath>
</defs>
</svg>
